<svg width="177" height="56" viewBox="0 0 177 56" fill="none" xmlns="http://www.w3.org/2000/svg" xmlns:xlink="http://www.w3.org/1999/xlink">
    <path d="M70.9395 36.8013L78.8384 55.9998H75.1907L73.3534 51.4466H64.5493L62.7389 55.9998H59.2588L67.0437 36.8013H70.9395ZM65.7831 48.2949H72.0928L68.9413 40.4224L65.7831 48.2949Z" fill="#8168F0"/>
    <path d="M95.2058 39.9597H84.9801V55.9998H81.5537V36.8013H98.6389V55.9998H95.2125V39.9597H95.2058Z" fill="#8168F0"/>
    <path d="M117.771 39.9598H111.301V56H107.874V39.9598H101.511V36.8081H117.771V39.9598Z" fill="#8168F0"/>
    <path d="M132.912 47.6914H124.081V52.8481H134.226V55.9998H120.654V36.8013H133.924V39.953H124.081V44.533H132.912V47.6914Z" fill="#8168F0"/>
    <path d="M56.3624 47.6914H47.5314V52.8481H57.6766V55.9998H44.105V36.8013H57.3749V39.953H47.5314V44.533H56.3624V47.6914Z" fill="#8168F0"/>
    <path d="M141.734 55.9998H138.308V36.8013H141.734V44.8616H144.611L150.78 36.8013H154.95L147.628 45.9345L156.13 55.9998H151.745L144.778 47.6914H141.734V55.9998Z" fill="#8168F0"/>
    <path d="M168.151 36.8013L176.05 55.9998H172.403L170.565 51.4466H161.761L159.951 55.9998H156.471L164.256 36.8013H168.151ZM162.995 48.2949H169.305L166.153 40.4224L162.995 48.2949Z" fill="#8168F0"/>
    <path xmlns="http://www.w3.org/2000/svg" d="M51.8523 22.1982C53.0938 22.2052 54.3169 21.8974 55.4082 21.3032L56.3211 20.807L58.9864 22.7781C57.2278 24.6681 54.6359 25.7068 51.6668 25.7068C48.8283 25.7068 46.234 24.6956 44.3783 22.8744C42.5225 21.0532 41.5 18.5221 41.5 15.7721C41.5 13.0222 42.5375 10.5285 44.3895 8.77237C46.2415 7.0162 48.8346 6.04871 51.6929 6.04871C54.3283 6.04871 56.6325 6.85245 58.3574 8.37364L58.553 8.5399L55.5987 10.7248C54.5071 9.94134 53.1942 9.52918 51.8523 9.54859C48.1396 9.54859 45.4444 12.2085 45.4444 15.8734C45.4444 19.5383 48.1396 22.1982 51.8523 22.1982Z" fill="#21A038"/>
    <path xmlns="http://www.w3.org/2000/svg" fill-rule="evenodd" clip-rule="evenodd" d="M71.608 13.762H66.5962V9.48463H74.5958L78.9077 6.29601H62.4774V25.4516H71.0712C75.8949 25.4516 78.661 23.258 78.661 19.4343C78.666 15.777 76.1589 13.762 71.608 13.762ZM70.8906 22.2617H66.5962V16.9519H70.8906C73.5061 16.9519 74.7216 17.8406 74.7216 19.6069C74.7216 21.4118 73.4276 22.2617 70.8906 22.2617Z" fill="#21A038"/>
    <path xmlns="http://www.w3.org/2000/svg" d="M96.9321 6.29601L92.6203 9.48463H86.6196V14.1683H95.4163V17.3582H86.6196V22.2617H96.9321V25.4516H82.5008V6.29601H96.9321Z" fill="#21A038"/>
    <path xmlns="http://www.w3.org/2000/svg" fill-rule="evenodd" clip-rule="evenodd" d="M100.767 6.29601H108.625C113.638 6.29601 116.75 8.92215 116.75 13.1508C116.75 17.3794 113.635 20.0255 108.622 20.0255H104.886V25.4516H100.767V6.29601ZM104.886 16.8356H108.536C111.175 16.8356 112.627 15.5307 112.627 13.1608C112.627 10.7909 111.175 9.48463 108.536 9.48463H104.886V16.8356Z" fill="#21A038"/>
    <path xmlns="http://www.w3.org/2000/svg" d="M28.4706 6.21826C29.2207 7.19473 29.8622 8.26169 30.3751 9.39902L15.8942 20.1465L9.84375 16.3273V11.7328L15.8942 15.5519L28.4706 6.21826Z" fill="#21A038"/>
    <path xmlns="http://www.w3.org/2000/svg" d="M3.67171 16.0031C3.67171 15.797 3.67671 15.5922 3.68669 15.3886L0.019969 15.2039C0.00748866 15.469 0 15.7355 0 16.0031C0 20.4218 1.77845 24.4232 4.65516 27.3199L7.25482 24.7022C5.0433 22.4727 3.67171 19.3963 3.67171 16.0031Z" fill="url(#paint0_linear)"/>
    <path xmlns="http://www.w3.org/2000/svg" d="M15.8938 3.69602C16.0985 3.69602 16.3019 3.70356 16.5041 3.71361L16.6876 0.020108C16.4242 0.00754079 16.1596 0 15.8938 0C11.5057 0 7.53199 1.79083 4.65527 4.68757L7.25493 7.30532C9.46894 5.0759 12.5241 3.69602 15.8938 3.69602Z" fill="url(#paint1_linear)"/>
    <path xmlns="http://www.w3.org/2000/svg" d="M15.8934 28.3102C15.6887 28.3102 15.4853 28.3052 15.2831 28.2951L15.0996 31.9874C15.3629 31.9999 15.6275 32.0075 15.8934 32.0075C20.2814 32.0075 24.2552 30.2166 27.1319 27.3199L24.5322 24.7021C22.3182 26.9291 19.263 28.3102 15.8934 28.3102Z" fill="url(#paint2_linear)"/>
    <path xmlns="http://www.w3.org/2000/svg" d="M22.7839 5.84375L25.8753 3.55024C23.1471 1.32961 19.6751 0 15.8936 0V3.69728C18.4483 3.69602 20.8208 4.49027 22.7839 5.84375Z" fill="url(#paint3_linear)"/>
    <path xmlns="http://www.w3.org/2000/svg" d="M31.7865 16.0031C31.7865 15.0241 31.6991 14.0665 31.5319 13.1353L28.111 15.6738C28.1135 15.7832 28.116 15.8925 28.116 16.0018C28.116 19.6149 26.5609 22.8698 24.0898 25.1231L26.5572 27.8691C29.7684 24.9421 31.7865 20.7095 31.7865 16.0031Z" fill="#21A038"/>
    <path xmlns="http://www.w3.org/2000/svg" d="M15.8936 28.3102C12.3055 28.3102 9.07308 26.7443 6.83535 24.256L4.1084 26.7405C7.01632 29.9753 11.2197 32.0074 15.8936 32.0074V28.3102Z" fill="url(#paint4_linear)"/>
    <path xmlns="http://www.w3.org/2000/svg" d="M7.69787 6.8818L5.23051 4.13586C2.01807 7.06402 0 11.2967 0 16.0031H3.67171C3.67296 12.3888 5.22676 9.1351 7.69787 6.8818Z" fill="url(#paint5_linear)"/>
    <defs xmlns="http://www.w3.org/2000/svg">
        <linearGradient id="paint0_linear" x1="5.39882" y1="26.8564" x2="1.33723" y2="15.1973" gradientUnits="userSpaceOnUse">
            <stop offset="0.1444" stop-color="#F2E913"/>
            <stop offset="0.3037" stop-color="#E7E518"/>
            <stop offset="0.5823" stop-color="#CADB26"/>
            <stop offset="0.891" stop-color="#A3CD39"/>
        </linearGradient>
        <linearGradient id="paint1_linear" x1="5.70463" y1="5.34115" x2="16.0549" y2="1.42415" gradientUnits="userSpaceOnUse">
            <stop offset="0.0592" stop-color="#0FA8E0"/>
            <stop offset="0.5385" stop-color="#0099F9"/>
            <stop offset="0.9234" stop-color="#0291EB"/>
        </linearGradient>
        <linearGradient id="paint2_linear" x1="14.8573" y1="29.7761" x2="26.5491" y2="27.1519" gradientUnits="userSpaceOnUse">
            <stop offset="0.1226" stop-color="#A3CD39"/>
            <stop offset="0.2846" stop-color="#86C339"/>
            <stop offset="0.8693" stop-color="#21A038"/>
        </linearGradient>
        <linearGradient id="paint3_linear" x1="15.1254" y1="1.23836" x2="25.1269" y2="4.30293" gradientUnits="userSpaceOnUse">
            <stop offset="0.0566" stop-color="#0291EB"/>
            <stop offset="0.79" stop-color="#0C8ACB"/>
        </linearGradient>
        <linearGradient id="paint4_linear" x1="5.02935" y1="26.2899" x2="15.9214" y2="30.3314" gradientUnits="userSpaceOnUse">
            <stop offset="0.1324" stop-color="#F2E913"/>
            <stop offset="0.2977" stop-color="#EBE716"/>
            <stop offset="0.5306" stop-color="#D9E01F"/>
            <stop offset="0.8023" stop-color="#BBD62D"/>
            <stop offset="0.9829" stop-color="#A3CD39"/>
        </linearGradient>
        <linearGradient id="paint5_linear" x1="1.36842" y1="16.4509" x2="5.7862" y2="5.03807" gradientUnits="userSpaceOnUse">
            <stop offset="0.0698" stop-color="#A3CD39"/>
            <stop offset="0.2599" stop-color="#81C55F"/>
            <stop offset="0.9216" stop-color="#0FA8E0"/>
        </linearGradient>
    </defs>
</svg>