<svg width="27" height="27" viewBox="0 0 36 36" fill="none" xmlns="http://www.w3.org/2000/svg">
<path d="M32.6886 35.6649L20.5442 23.5184C15.1418 27.3592 7.69739 26.4197 3.41856 21.3571C-0.860261 16.2945 -0.546079 8.79762 4.14133 4.11075C8.82751 -0.57818 16.3251 -0.893722 21.3887 3.38488C26.4522 7.66348 27.3923 15.1086 23.5511 20.5115L35.6955 32.658L32.6886 35.6649ZM13.1556 4.62497C9.12595 4.62406 5.64943 7.45268 4.83084 11.3983C4.01226 15.3439 6.07659 19.3221 9.77402 20.9243C13.4715 22.5264 17.7857 21.3123 20.1048 18.0169C22.424 14.7215 22.1105 10.2505 19.3542 7.311L20.6398 8.586L19.1906 7.141L19.1651 7.1155C17.5751 5.51575 15.411 4.61889 13.1556 4.62497Z" fill="#FF8000"/>
</svg>
